Patient4_TMGait_0pt4_02_right_19_EMG.mot
version=1
nRows=29
nColumns=33
inDegrees=no
endheader
time	1LAddLong	2LGlutMax	3LGlutMed	4LIliopsoas	5LSemiMemb	6LBicFemLong	7LRecFem	8LVastMed	9LVastLat	10LGasMed	11LTibAnt	12lTibPost	13LPeroneusLong	14LSol	15LExtDigLong	16LFlexDigLong	17RAddLong	18RGlutMax	19RGlutMed	20RIliopsoas	21RSemiMemb	22RBicFemLong	23RRecFem	24RVastMed	25RVastLat	26RGasMed	27RTibAnt	28RTibPost	29RPeroneusLong	30RSol	31RExtDigLong	32RFlexDigLong
26.21	0.001373	-0.11581	-0.017853	0.020294	-0.001373	0.010986	0.005493	-0.009613	0.022888	-0.029907	-0.048065	0.013428	0.052032	-0.087585	-0.15823	0.010223	0.014191	-0.04837	-0.059357	-0.083618	0.054474	0.015717	0.11459	-0.10147	-0.00473	0.002289	0.038605	-0.005035	0.23163	-0.053864	-0.002289	0.006409
26.211	-0.000458	-0.077362	0.051117	0.002747	-0.00824	0.029297	-0.019989	0.004425	-0.002136	-0.07019	0.04837	0.00824	0.2066	0.00061	-0.3009	0.014648	0.008698	-0.059357	0.069122	-0.046387	-0.1297	0.025635	-0.023193	-0.10208	-0.001068	-0.007935	-0.006409	-0.006256	0.13626	-0.14297	-0.004425	0.000305
26.212	0.005798	-0.092621	-0.054474	-0.000458	-0.001373	0.015106	-0.054626	-0.00824	-0.002441	-0.059052	0.032043	0.005188	0.44815	0.053864	-0.010071	-0.005493	0.010681	-0.032349	-0.37735	-0.019989	-0.25131	0.029449	-0.08194	-0.12558	0.000458	-0.012817	-0.24445	-0.010223	0.1889	-0.060577	0.002747	-0.001221
26.213	0.008545	-0.072327	-0.025177	0.007629	0.017395	-0.00885	-0.018463	-0.005951	0.012207	-0.013275	0.021973	0.005951	0.50003	0.12711	-0.018768	-0.005188	0.028687	0.009155	-0.98068	0.031433	-0.28153	0.018311	-0.103	-0.078583	-0.013885	-0.016022	-0.13382	-0.007935	0.056305	-0.040894	-0.001984	-0.00473
26.214	0.008698	-0.043335	-0.15976	0.016022	0.02121	-0.017395	-0.02243	0.001221	0.027313	0.008087	0.006561	0.00946	0.3009	-0.036316	-0.09903	-0.015106	0.042572	0.054474	-0.36438	0.072784	0.12421	-0.047302	-0.14267	-0.047455	0.00946	-0.018005	0.026703	-0.009155	-0.10269	-0.042114	-0.000305	-0.00061
26.215	0.006714	-0.084381	-0.15305	-0.026855	0.02533	-0.04776	0.033264	0.000458	0.053101	-0.042725	0.029907	0.009003	-0.10742	-0.013733	0.076904	0.006256	0.07431	-0.04425	0.69321	0.006714	0.61874	-0.13458	-0.10452	0.000916	0.015411	-0.013275	0.074921	-0.007782	-0.13504	-0.063782	-0.001373	0.00061
26.216	0.007629	-0.084076	0.085144	-0.032196	0.019073	-0.035095	0.094299	0.004425	0.045624	-0.04837	0.03067	0.003815	0.055237	0.10773	0.14282	-0.003357	0.042725	-0.11353	1.7062	-0.067749	0.52734	-0.15961	-0.16266	-0.020294	0.017548	-0.014496	0.092621	-0.005951	-0.18601	-0.041046	-0.003052	-0.002441
26.217	0.009613	-0.12009	0.050354	0.005035	0.003357	-0.018616	0.19241	-0.018158	0.021515	-0.012512	0.032043	0.011292	-0.17792	0.063477	0.042725	0.002441	0.017395	-0.18524	1.5768	-0.063934	0.26703	-0.020905	-0.26733	0.010529	0.019989	-0.025482	0.091705	-0.005798	-0.13351	0.003204	-0.002594	-0.009308
26.218	0.010834	-0.1236	0.031891	0.016632	0.005493	-0.018768	0.23438	0.030212	-0.014496	0.008392	0.034027	0.006104	-0.20676	-0.033417	-0.040436	-0.004425	-0.055084	-0.24765	0.65094	0.019989	-0.22903	0.24765	-0.24063	0.071716	0.048981	-0.023041	0.059357	-0.007782	0.077667	0.012207	-0.002289	-0.004578
26.219	0.011444	-0.10559	-0.032043	0.018616	0.010681	-0.017242	0.25131	0.035095	0.078278	0.024872	0.025787	0.001678	0.35767	-0.043488	0.055847	0.001678	-0.045624	-0.18509	0.27557	0.021362	-0.14313	0.20691	-0.15076	0.001373	0.025024	-0.030212	0.092926	-0.009003	0.11124	0.018616	-0.005341	-0.005341
26.22	0.015411	-0.099945	-0.008698	0.016022	0.016327	-0.038452	0.12924	0.042267	0.14053	0.005341	0.003357	0.010071	-0.38971	0.13473	0.18249	-0.000153	-0.041962	-0.16937	0.40344	-0.015106	-0.05188	0.18372	-0.079803	-0.046234	0.010071	-0.037079	0.076447	-0.007629	0.039368	-0.031281	-0.002594	-0.004272
26.221	0.011444	-0.092621	0.013275	0.018463	0.007629	-0.028687	-0.006561	0.029755	0.1976	-0.037079	0.006256	0.009155	-0.50705	0.030823	0.096283	-0.00061	-0.04425	-0.16327	0.40207	0.010376	-0.11673	0.24368	-0.041504	0.003662	0.014801	-0.032043	0.094757	-0.009766	0.14984	-0.1088	-0.004272	-0.005188
26.222	0.012054	-0.12924	-0.043945	0.029907	0.013123	-0.036621	-0.086517	0.018616	0.25482	-0.005188	0.012512	-0.00351	0.1683	-0.18723	0.044861	-0.006409	-0.051422	-0.17502	0.088196	0.042572	0.004578	0.16068	-0.011292	0.028992	0.036163	-0.041809	0.23163	-0.010223	0.14725	-0.10284	-0.004883	-0.006866
26.223	0.015869	-0.1181	-0.075378	0.041351	0.01297	-0.016174	-0.25253	-0.005188	0.35538	0.003815	-0.008698	0.006409	0.4335	-0.17883	-0.023804	-0.010223	-0.020142	-0.21744	-0.41214	0.056305	-0.036163	0.12863	-0.040436	0.005951	0.020905	-0.046692	0.19989	-0.006104	0.012665	-0.10986	-0.003052	-0.002747
26.224	0.019989	-0.10971	-0.010376	0.040131	0.016479	-0.020905	-0.25894	-0.00824	0.22827	-0.00061	-0.006256	0.007782	0.077209	-0.057373	-0.11414	-0.005798	0.019989	-0.15686	-0.37109	0.045013	-0.031433	0.10468	-0.023956	-0.024872	0.018311	-0.071716	0.040588	-0.005493	-0.16327	-0.081024	-0.001831	0.001373
26.225	0.001984	-0.05661	-0.044403	0.009155	0.020447	-0.007629	-0.016632	-0.006256	-0.12619	-0.018158	0.007477	0.00824	-0.23789	0.07431	-0.057678	-0.00412	0.015564	-0.084534	0.10117	-0.044861	-0.02533	0.087738	-0.004883	-0.062103	0.024719	-0.09552	0.06485	-0.004883	-0.27481	-0.06012	-0.00351	0.001221
26.226	-0.001831	-0.099182	-0.063324	-0.030823	0.005798	0.038147	0.09613	-0.005341	-0.25925	-0.018616	0.056152	0.012665	-0.40482	0.30853	0.073853	0.006714	0.014954	-0.03067	-0.028229	-0.036926	-0.15686	0.15656	-0.003357	-0.050964	0.034943	-0.098572	-0.030365	-0.007019	0.15076	-0.065918	0	-0.00885
26.227	-0.009003	-0.10712	-0.048523	-0.029602	-0.003052	0.014343	0.088348	-0.019989	-0.25879	-0.025024	0.050201	0.006409	-0.006714	0.22369	0.10956	0.006256	-0.023956	-0.027771	0.34073	-0.001678	-0.18631	0.14862	-0.01297	-0.077667	0.050812	-0.057373	-0.058289	-0.004578	0.24155	-0.07309	-0.002136	-0.005341
26.228	-0.002747	-0.10834	0.12451	-0.014038	0.00946	0.018158	0.047302	-0.040436	-0.22919	0.002136	0.053253	0.011139	-0.11398	-0.005798	0.10849	0.001984	0.008392	-0.055389	0.25238	0.028229	-0.22217	0.13947	0.039063	-0.086517	0.032043	0.032196	-0.034637	-0.001221	0.22201	-0.055695	-0.005493	-0.004272
26.229	-0.000458	-0.12619	0.10559	-0.02182	0.010986	0.004883	0.097961	-0.034943	-0.17242	0.05188	0.033569	-0.001068	0.1767	-0.090332	0.023193	-0.016785	0.023956	-0.060883	-0.33615	0.047455	-0.24628	0.098419	0.009918	-0.089111	0.044556	0.13534	-0.021667	-0.000153	0.029297	-0.043945	-0.003815	-0.003662
26.23	0.004272	-0.10101	0.1181	-0.038605	0.010529	-0.008545	0.12207	-0.030518	-0.073242	0.065155	0.03067	0.010376	-0.10971	-0.025482	0.009308	-0.019989	0.05249	-0.11429	-0.45456	0.049286	-0.098419	0.092163	-0.042419	-0.068512	0.044861	0.2066	-0.026245	-0.007782	0.031738	0.009155	-0.000305	0.003662
26.231	0.006409	-0.10147	0.063629	-0.015259	0.007172	-0.018158	0.10147	-0.00946	0.013428	0.0383	0.072937	0.009003	-0.2832	-0.087738	-0.065002	-0.010223	0.045776	-0.06546	-0.47745	0.017242	0.084381	0.077057	0.005341	-0.022736	0.059509	0.24933	-0.021362	0.004883	0.17258	-0.00824	0	0.007935
26.232	0.009613	-0.10574	0.027466	-0.010986	0.012512	-0.006256	-0.049286	-0.001984	0.057526	0.019989	-0.00885	0.007782	-0.55603	-0.11566	-0.1593	-0.000763	-0.023193	-0.090485	-0.20004	0.008087	0.066833	0.036926	-0.046234	0.027924	0.074768	0.26962	-0.014038	0.002594	0.17944	-0.022583	0	0.007019
26.233	0.014343	-0.12238	-0.038147	0.020752	0.019531	-0.029144	-0.23911	-0.00061	0.062103	0.021973	0.006104	0.017548	0.011749	-0.007324	-0.112	-0.007324	-0.050812	-0.066071	-0.17044	0.02182	-0.041962	-0.025635	-0.029144	-0.011597	0.075989	0.27725	0.033569	-0.000916	0.11261	-0.03952	0.000153	0.006256
26.234	0.006714	-0.097351	-0.095673	0.012512	0.014954	-0.007172	-0.13031	-0.002441	0.08606	-0.029602	0.036621	-0.000916	0.13611	0.10956	-0.043488	-0.011902	-0.048523	-0.089874	-0.16953	-0.010223	-0.020599	-0.020142	-0.006866	-0.003815	0.072937	0.26413	0.035248	-0.002747	-0.014954	-0.051727	-0.002899	0.00473
26.235	-0.00412	-0.083771	0.10666	0.00351	0.009766	0.002289	0.06424	0.003815	0.045929	-0.01236	-0.016785	0.009918	0.19547	-0.027466	0.058441	-0.012817	-0.027161	-0.10956	-0.095062	0.010529	0.14175	0.020447	-0.005798	-0.056763	0.043945	0.22446	-0.002136	-0.003204	-0.10834	-0.065765	-0.003052	0.003662
26.236	-0.000763	-0.10986	0.19592	0.032959	0.004272	0.0354	0.09201	0.020294	0.02533	-0.050964	-0.013123	0.014648	-0.06134	0.020294	0.14084	-0.009918	-0.007935	-0.007172	-0.026703	-0.024872	0.18326	0.070038	0.00885	-0.066528	0.06897	0.16602	-0.031891	-0.001068	-0.054016	-0.007324	-0.001678	0.018616
26.237	0.009003	-0.14954	0.10941	0.028534	0.008545	0.03067	0.095673	-0.005188	0.030518	-0.095062	0.017395	0.008698	-0.38925	0.085602	0.15533	-0.010071	0.00412	-0.042419	-0.14389	0.007477	0.058899	0.069122	-0.006409	-0.014801	0.06958	0.10605	-0.1001	0.001221	-0.06012	0.002747	-0.003662	0.014191
26.238	0.003204	-0.086975	0.10193	0.012207	0.015564	-0.00412	0.1149	-0.002289	0.039978	-0.066376	0.04364	0.009155	0.1358	-0.000916	0.099945	0.000305	-0.003967	-0.036774	-0.4805	-0.021057	-0.087128	0.045471	-0.054779	-0.025482	0.074921	0.057526	0.010529	0.000305	0.084381	-0.095673	-0.000916	0.007935
